<svg xmlns="http://www.w3.org/2000/svg" viewBox="0 0 100.26 100"><defs><style>.cls-1{fill:none;stroke:#282828;stroke-width:2.3px;}.cls-1,.cls-2{stroke-miterlimit:10;}.cls-2,.cls-3{fill:#282828;}.cls-2{stroke:#fff;}</style></defs><title>Artboard 61</title><g id="Layer_24" data-name="Layer 24"><path class="cls-1" d="M74.51,69.38a24.85,24.85,0,0,0,3.77-6.57"/><path class="cls-1" d="M22.07,62.69a24.4,24.4,0,0,0,3.72,6.49"/><path class="cls-1" d="M42.78,80a28.18,28.18,0,0,0,4.8.85"/><path class="cls-1" d="M29.68,57.41a21.82,21.82,0,0,0,41.22-.2"/><path class="cls-2" d="M82.15,66.73c0-5-2.53-4.83-2.87-4.86-2.86-.35-15.62-12.25-16.86-13.57-1.74-1.84-4-12.89-5-18.41a19.33,19.33,0,0,0-2.93-8.46h0a28.14,28.14,0,0,0-3.89-5v-.07l0,0,0,0v.07h0a27.7,27.7,0,0,0-3.87,5h0a19.33,19.33,0,0,0-2.92,8.31c-1,5.4-3.3,16.72-5.12,18.59C37.34,49.65,24.24,61.56,21.3,61.9c-.34,0-2.95-.14-2.95,4.87h.06l1.89,3,10.89,1.09-.54-4.07h1.16L32.22,71l9.42.73a14,14,0,0,0-.48,3.62h2.46s-3.25,6.61-1.54,8.33h7.86c1.71-1.72-1.53-8.33-1.53-8.33h5.14S50.3,81.94,52,83.66h7.85c1.71-1.72-1.53-8.33-1.53-8.33H60a13.85,13.85,0,0,0-.49-3.66L68.38,71l.42-4.25h1.09l-.55,4.11,10.89-1.09,1.92-3Z"/><path class="cls-3" d="M80.75,8C60.68,8,40.56,7.55,20.5,8c-5.67.13-10.71,3.29-12,9.1-.63,2.91-.28,6.18-.28,9.13v39c0,8.24-2.53,21.57,6.86,25.74,3,1.32,6.36,1,9.53,1H78.13c4.41,0,8.62-.6,11.59-4.34,2.56-3.21,2.53-6.88,2.53-10.72V35.16c0-10,2.8-26.2-11.5-27.17-1.93-.13-1.92,2.87,0,3,11.65.79,8.5,18,8.5,26V72.41c0,2.64.17,5.36,0,8C88.84,86.75,83.84,89,78.34,89H47.27c-9,0-18,.42-27,0-11.4-.53-9-13.7-9-21.59v-36c0-7.89-2.08-19.92,9.25-20.37,20-.79,40.21,0,60.25,0A1.5,1.5,0,0,0,80.75,8Z"/></g></svg>